<svg width="533" height="440" viewBox="0 0 533 440" fill="none" xmlns="http://www.w3.org/2000/svg">
<g opacity="0.75" clip-path="url(#clip0_5709_1064)">
<g opacity="0.75">
<mask id="mask0_5709_1064" style="mask-type:alpha" maskUnits="userSpaceOnUse" x="0" y="-2" width="607" height="643">
<rect x="0.5" y="-1.5" width="606" height="642" fill="url(#paint0_linear_5709_1064)" stroke="#F1F2F9"/>
</mask>
<g mask="url(#mask0_5709_1064)">
<rect x="303.62" y="-0.866699" width="76.3649" height="85.4424" stroke="#E4E4E7" stroke-width="0.75"/>
<rect x="303.62" y="84.5771" width="76.3649" height="85.4424" stroke="#E4E4E7" stroke-width="0.75"/>
<rect x="303.62" y="170.019" width="76.3649" height="85.4424" stroke="#E4E4E7" stroke-width="0.75"/>
<rect x="303.62" y="255.461" width="76.3649" height="85.4424" stroke="#E4E4E7" stroke-width="0.75"/>
<rect x="303.62" y="340.903" width="76.3649" height="85.4424" stroke="#E4E4E7" stroke-width="0.75"/>
<rect x="-1.84375" y="-0.866699" width="76.3649" height="85.4424" stroke="#E4E4E7" stroke-width="0.75"/>
<rect x="379.983" y="-0.866699" width="76.3649" height="85.4424" stroke="#E4E4E7" stroke-width="0.75"/>
<rect x="-1.84375" y="84.5771" width="76.3649" height="85.4424" stroke="#E4E4E7" stroke-width="0.75"/>
<rect x="379.983" y="84.5771" width="76.3649" height="85.4424" stroke="#E4E4E7" stroke-width="0.75"/>
<rect x="-1.84375" y="170.019" width="76.3649" height="85.4424" stroke="#E4E4E7" stroke-width="0.75"/>
<rect x="379.983" y="170.019" width="76.3649" height="85.4424" stroke="#E4E4E7" stroke-width="0.75"/>
<rect x="-1.84375" y="255.461" width="76.3649" height="85.4424" stroke="#E4E4E7" stroke-width="0.75"/>
<rect x="379.983" y="255.461" width="76.3649" height="85.4424" stroke="#E4E4E7" stroke-width="0.75"/>
<rect x="-1.84375" y="340.903" width="76.3649" height="85.4424" stroke="#E4E4E7" stroke-width="0.75"/>
<rect x="379.983" y="340.903" width="76.3649" height="85.4424" stroke="#E4E4E7" stroke-width="0.75"/>
<rect x="74.5254" y="-0.866699" width="76.3649" height="85.4424" stroke="#E4E4E7" stroke-width="0.75"/>
<rect x="456.346" y="-0.866699" width="76.3649" height="85.4424" stroke="#E4E4E7" stroke-width="0.75"/>
<rect x="74.5254" y="84.5771" width="76.3649" height="85.4424" stroke="#E4E4E7" stroke-width="0.75"/>
<rect x="456.346" y="84.5771" width="76.3649" height="85.4424" stroke="#E4E4E7" stroke-width="0.75"/>
<rect x="74.5254" y="170.019" width="76.3649" height="85.4424" stroke="#E4E4E7" stroke-width="0.75"/>
<rect x="456.346" y="170.019" width="76.3649" height="85.4424" stroke="#E4E4E7" stroke-width="0.75"/>
<rect x="74.5254" y="255.461" width="76.3649" height="85.4424" stroke="#E4E4E7" stroke-width="0.75"/>
<rect x="456.346" y="255.461" width="76.3649" height="85.4424" stroke="#E4E4E7" stroke-width="0.75"/>
<rect x="74.5254" y="340.903" width="76.3649" height="85.4424" stroke="#E4E4E7" stroke-width="0.75"/>
<rect x="456.346" y="340.903" width="76.3649" height="85.4424" stroke="#E4E4E7" stroke-width="0.75"/>
<rect x="150.889" y="-0.866699" width="76.3649" height="85.4424" stroke="#E4E4E7" stroke-width="0.75"/>
<rect x="532.715" y="-0.866699" width="76.3649" height="85.4424" stroke="#E4E4E7" stroke-width="0.75"/>
<rect x="150.889" y="84.5771" width="76.3649" height="85.4424" stroke="#E4E4E7" stroke-width="0.75"/>
<rect x="532.715" y="84.5771" width="76.3649" height="85.4424" stroke="#E4E4E7" stroke-width="0.75"/>
<rect x="150.889" y="170.019" width="76.3649" height="85.4424" stroke="#E4E4E7" stroke-width="0.75"/>
<rect x="532.715" y="170.019" width="76.3649" height="85.4424" stroke="#E4E4E7" stroke-width="0.75"/>
<rect x="150.889" y="255.461" width="76.3649" height="85.4424" stroke="#E4E4E7" stroke-width="0.75"/>
<rect x="532.715" y="255.461" width="76.3649" height="85.4424" stroke="#E4E4E7" stroke-width="0.75"/>
<rect x="150.889" y="340.903" width="76.3649" height="85.4424" stroke="#E4E4E7" stroke-width="0.75"/>
<rect x="532.715" y="340.903" width="76.3649" height="85.4424" stroke="#E4E4E7" stroke-width="0.75"/>
<rect x="227.251" y="-0.866699" width="76.3649" height="85.4424" stroke="#E4E4E7" stroke-width="0.75"/>
<rect x="227.251" y="84.5771" width="76.3649" height="85.4424" stroke="#E4E4E7" stroke-width="0.75"/>
<rect x="227.251" y="170.019" width="76.3649" height="85.4424" stroke="#E4E4E7" stroke-width="0.75"/>
<rect x="227.251" y="255.461" width="76.3649" height="85.4424" stroke="#E4E4E7" stroke-width="0.75"/>
<rect x="227.251" y="340.903" width="76.3649" height="85.4424" stroke="#E4E4E7" stroke-width="0.75"/>
<rect x="303.62" y="426.346" width="76.3649" height="85.4424" stroke="#E4E4E7" stroke-width="0.75"/>
<rect x="-1.84375" y="426.346" width="76.3649" height="85.4424" stroke="#E4E4E7" stroke-width="0.75"/>
<rect x="379.983" y="426.346" width="76.3649" height="85.4424" stroke="#E4E4E7" stroke-width="0.75"/>
<rect x="74.5254" y="426.346" width="76.3649" height="85.4424" stroke="#E4E4E7" stroke-width="0.75"/>
<rect x="456.346" y="426.346" width="76.3649" height="85.4424" stroke="#E4E4E7" stroke-width="0.75"/>
<rect x="150.889" y="426.346" width="76.3649" height="85.4424" stroke="#E4E4E7" stroke-width="0.75"/>
<rect x="532.715" y="426.346" width="76.3649" height="85.4424" stroke="#E4E4E7" stroke-width="0.75"/>
<rect x="227.251" y="426.346" width="76.3649" height="85.4424" stroke="#E4E4E7" stroke-width="0.75"/>
</g>
</g>
</g>
<defs>
<linearGradient id="paint0_linear_5709_1064" x1="303.5" y1="-2" x2="303.5" y2="425.268" gradientUnits="userSpaceOnUse">
<stop stop-color="#FBFBFE"/>
<stop offset="1" stop-color="#6F6C8F" stop-opacity="0"/>
</linearGradient>
<clipPath id="clip0_5709_1064">
<rect width="533" height="448" fill="white" transform="translate(0 -2)"/>
</clipPath>
</defs>
</svg>
